<?xml version="1.0" encoding="UTF-8" standalone="no"?>
<svg
   viewBox="-2 0 141.5 141.46011"
   version="1.1"
   id="svg11"
   sodipodi:docname="logo-svg.svg"
   width="141.5"
   height="141.46011"
   inkscape:version="1.4.2 (f4327f4, 2025-05-13)"
   xmlns:inkscape="http://www.inkscape.org/namespaces/inkscape"
   xmlns:sodipodi="http://sodipodi.sourceforge.net/DTD/sodipodi-0.dtd"
   xmlns:xlink="http://www.w3.org/1999/xlink"
   xmlns="http://www.w3.org/2000/svg"
   xmlns:svg="http://www.w3.org/2000/svg">
  <defs
     id="defs11" />
  <sodipodi:namedview
     id="namedview11"
     pagecolor="#ffffff"
     bordercolor="#000000"
     borderopacity="0.25"
     inkscape:showpageshadow="2"
     inkscape:pageopacity="0.0"
     inkscape:pagecheckerboard="0"
     inkscape:deskcolor="#d1d1d1"
     inkscape:zoom="3.7492373"
     inkscape:cx="122.29154"
     inkscape:cy="40.67494"
     inkscape:window-width="2400"
     inkscape:window-height="1411"
     inkscape:window-x="-9"
     inkscape:window-y="-9"
     inkscape:window-maximized="1"
     inkscape:current-layer="g11" />
  <text
     x="178.75"
     y="-6.7898865"
     font-size="83px"
     fill-opacity="0"
     font-family="Trebuchet"
     font-weight="bold"
     id="text2">SVG</text>
  <g
     shape-rendering="geometricPrecision"
     text-rendering="geometricPrecision"
     image-rendering="optimizeQuality"
     id="g11"
     transform="translate(-1.25,-81.789886)">
    <g
       id="logo"
       transform="matrix(0.5,0,0,0.5,-5,77.5)">
      <defs
         id="defs6">
        <g
           id="SVG"
           fill="#ffffff"
           transform="matrix(2,0,0,2,40,158)">
          <path
             id="S"
             d="M 5.482,31.319 C 2.163,28.001 0.109,23.419 0.109,18.358 0.109,8.232 8.322,0.024 18.443,0.024 c 10.126,0 18.339,8.208 18.339,18.334 h -10.74 c 0,-4.194 -3.404,-7.593 -7.599,-7.593 -4.194,0 -7.593,3.399 -7.593,7.593 0,2.095 0.851,3.993 2.22,5.363 h 0.005 c 1.375,1.38 2.52,1.779 5.368,2.231 v 0 c 5.066,0.527 9.648,2.054 12.966,5.372 v 0 c 3.319,3.319 5.373,7.901 5.373,12.962 0,10.126 -8.213,18.339 -18.339,18.339 C 8.322,62.625 0.109,54.412 0.109,44.286 H 10.85 c 0,4.194 3.399,7.598 7.593,7.598 4.195,0 7.599,-3.404 7.599,-7.598 0,-2.095 -0.851,-3.988 -2.221,-5.363 H 23.816 C 22.441,37.548 20.468,37.074 18.443,36.697 V 36.692 C 13.533,35.939 8.8,34.638 5.482,31.319 Z" />
          <path
             id="V"
             d="M 73.452,0.024 60.482,62.625 H 49.742 L 36.782,0.024 h 10.74 l 7.6,36.663 7.59,-36.663 z" />
          <path
             id="G"
             d="m 91.792,25.952 h 18.334 v 18.334 h 0.005 c 0,10.127 -8.213,18.34 -18.339,18.34 -10.127,0 -18.334,-8.213 -18.334,-18.34 v 0 -25.927 h -0.005 c 0,-10.126 8.212,-18.334 18.339,-18.334 10.121,0 18.334,8.208 18.334,18.334 H 99.385 c 0,-4.19 -3.404,-7.594 -7.593,-7.594 -4.195,0 -7.594,3.404 -7.594,7.594 v 25.927 0 c 0,4.195 3.399,7.594 7.594,7.594 4.189,0 7.588,-3.399 7.593,-7.589 v -0.005 -7.588 h -7.593 z" />
        </g>
      </defs>
      <path
         id="base"
         fill="#000000"
         d="m 8.5,150 h 283 v 100 c 0,23.5 -18,41.5 -41.5,41.5 H 50 C 26.5,291.5 8.5,273.5 8.5,250 Z" />
      <g
         stroke-width="38.0086"
         stroke="#000000"
         id="g8">
        <g
           id="svgstar"
           transform="translate(150,150)">
          <path
             id="svgbar"
             fill="#ffb13b"
             d="m -84.1487,-15.8513 a 22.4171,22.4171 0 1 0 0,31.7026 H 84.1487 a 22.4171,22.4171 0 1 0 0,-31.7026 z" />
          <use
             xlink:href="#svgbar"
             transform="rotate(45)"
             id="use6" />
          <use
             xlink:href="#svgbar"
             transform="rotate(90)"
             id="use7" />
          <use
             xlink:href="#svgbar"
             transform="rotate(135)"
             id="use8" />
        </g>
      </g>
      <use
         xlink:href="#svgstar"
         id="use9" />
      <use
         xlink:href="#base"
         opacity="0.85"
         id="use10" />
      <use
         xlink:href="#SVG"
         id="use11" />
    </g>
  </g>
</svg>
