<?xml version="1.0" encoding="UTF-8" standalone="no"?>
<!-- Generator: Adobe Illustrator 15.0.0, SVG Export Plug-In . SVG Version: 6.00 Build 0)  -->

<svg
   version="1.1"
   id="Layer_1"
   x="0px"
   y="0px"
   width="17.504051"
   height="19.851519"
   viewBox="0 160 297.44999 199.03995"
   enable-background="new 0 0 297.45 419.877"
   xml:space="preserve"
   sodipodi:docname="logo-es6.svg"
   inkscape:version="1.4.2 (f4327f4, 2025-05-13)"
   xmlns:inkscape="http://www.inkscape.org/namespaces/inkscape"
   xmlns:sodipodi="http://sodipodi.sourceforge.net/DTD/sodipodi-0.dtd"
   xmlns="http://www.w3.org/2000/svg"
   xmlns:svg="http://www.w3.org/2000/svg"><defs
   id="defs8" /><sodipodi:namedview
   id="namedview8"
   pagecolor="#ffffff"
   bordercolor="#000000"
   borderopacity="0.25"
   inkscape:showpageshadow="2"
   inkscape:pageopacity="0.0"
   inkscape:pagecheckerboard="true"
   inkscape:deskcolor="#d1d1d1"
   inkscape:zoom="28.488192"
   inkscape:cx="14.707848"
   inkscape:cy="9.4249575"
   inkscape:window-width="2400"
   inkscape:window-height="1411"
   inkscape:window-x="-9"
   inkscape:window-y="-9"
   inkscape:window-maximized="1"
   inkscape:current-layer="Layer_1" />
<polygon
   fill="#ffcc33"
   points="148.543,419.877 27.07,386.156 0,82.536 297.45,82.536 270.352,386.107 "
   id="polygon1"
   transform="translate(0,8.3134784)" />
<polygon
   fill="#f8dc3d"
   points="148.725,394.064 247.153,366.777 270.311,107.361 148.725,107.361 "
   id="polygon2"
   transform="translate(0,8.3134784)" />
<g
   id="g7"
   transform="translate(0,8.3134784)">
	<g
   id="g4">
		<polygon
   fill="#ffffff"
   points="225.27,334.295 225.828,328.004 235.486,229.97 148.93,209.97 148.93,247.207 194.783,257.207 190.461,305.5 148.93,316.711 148.93,355.453 "
   id="polygon3" />
		<polygon
   fill="#ffffff"
   points="224.926,142.736 148.586,121.578 148.586,160.32 224.967,181.838 "
   id="polygon4" />
	</g>
	<g
   id="g6">
		<g
   id="g5">
			<polygon
   fill="#ebebeb"
   points="100.803,219.97 107.078,171.505 148.551,160.306 148.715,160.352 148.715,121.608 148.543,121.56 72.264,142.736 62.424,219.97 62.406,219.97 62.412,220.049 62.406,220.104 62.418,220.104 65.727,257.207 65.908,257.207 72.607,334.295 148.887,355.471 149.059,355.422 149.059,316.678 148.895,316.725 107.422,305.525 103.277,257.207 149.059,247.207 149.059,209.97 "
   id="polygon5" />
		</g>
	</g>
</g>

</svg>
