<?xml version="1.0" encoding="UTF-8" standalone="no"?>
<svg
   viewBox="0 0 122.557 48.820999"
   version="1.1"
   id="svg70"
   sodipodi:docname="logo-asp-net.svg"
   width="122.557"
   height="48.820999"
   inkscape:version="1.4.2 (f4327f4, 2025-05-13)"
   xmlns:inkscape="http://www.inkscape.org/namespaces/inkscape"
   xmlns:sodipodi="http://sodipodi.sourceforge.net/DTD/sodipodi-0.dtd"
   xmlns="http://www.w3.org/2000/svg"
   xmlns:svg="http://www.w3.org/2000/svg">
  <defs
     id="defs70" />
  <sodipodi:namedview
     id="namedview70"
     pagecolor="#ffffff"
     bordercolor="#000000"
     borderopacity="0.25"
     inkscape:showpageshadow="2"
     inkscape:pageopacity="0.0"
     inkscape:pagecheckerboard="0"
     inkscape:deskcolor="#d1d1d1"
     inkscape:zoom="9.3203125"
     inkscape:cx="61.317687"
     inkscape:cy="24.409053"
     inkscape:window-width="2400"
     inkscape:window-height="1411"
     inkscape:window-x="-9"
     inkscape:window-y="-9"
     inkscape:window-maximized="1"
     inkscape:current-layer="svg70" />
  <linearGradient
     id="dot-net-original-a"
     gradientUnits="userSpaceOnUse"
     x1="61.631001"
     y1="563.34698"
     x2="62.021999"
     y2="563.34698"
     gradientTransform="matrix(0,149.735,149.735,0,-84298.987,-9227.603)">
    <stop
       offset="0"
       stop-color="#0994DC"
       id="stop1" />
    <stop
       offset=".35"
       stop-color="#66CEF5"
       id="stop2" />
    <stop
       offset=".35"
       stop-color="#66CEF5"
       id="stop3" />
    <stop
       offset=".846"
       stop-color="#127BCA"
       id="stop4" />
    <stop
       offset=".846"
       stop-color="#127BCA"
       id="stop5" />
    <stop
       offset="1"
       stop-color="#127BCA"
       id="stop6" />
  </linearGradient>
  <path
     fill="url(#dot-net-original-a)"
     d="m 42.567,9.97 c 4.417,13.507 6.09,37.601 19.006,37.601 0.982,0 1.977,-0.096 2.974,-0.286 C 52.807,44.548 51.415,20.716 44.25,8.373 A 61.601,61.601 0 0 0 42.567,9.97"
     id="path6"
     style="fill:url(#dot-net-original-a)" />
  <linearGradient
     id="dot-net-original-b"
     gradientUnits="userSpaceOnUse"
     x1="61.705002"
     y1="563.34003"
     x2="62.095001"
     y2="563.34003"
     gradientTransform="matrix(0,153.551,153.551,0,-86445.44,-9475.558)">
    <stop
       offset="0"
       stop-color="#0E76BC"
       id="stop7" />
    <stop
       offset=".36"
       stop-color="#36AEE8"
       id="stop8" />
    <stop
       offset=".36"
       stop-color="#36AEE8"
       id="stop9" />
    <stop
       offset=".846"
       stop-color="#00ADEF"
       id="stop10" />
    <stop
       offset=".846"
       stop-color="#00ADEF"
       id="stop11" />
    <stop
       offset="1"
       stop-color="#00ADEF"
       id="stop12" />
  </linearGradient>
  <path
     fill="url(#dot-net-original-b)"
     d="m 44.25,8.373 c 7.165,12.342 8.557,36.174 20.297,38.912 A 18.621,18.621 0 0 0 67.32,46.536 C 56.781,41.372 53.869,18.23 45.732,7.089 45.24,7.499 44.745,7.928 44.25,8.373"
     id="path12"
     style="fill:url(#dot-net-original-b)" />
  <path
     fill="#14559a"
     d="m 54.573,1.034 c -0.98,0 -1.977,0.096 -2.977,0.286 -2.612,0.493 -5.268,1.618 -7.944,3.321 0.73,0.722 1.427,1.547 2.081,2.448 2.723,-2.259 5.427,-3.928 8.12,-4.932 A 18.177,18.177 0 0 1 56.882,1.315 9.393,9.393 0 0 0 54.573,1.034"
     id="path13" />
  <linearGradient
     id="dot-net-original-c"
     gradientUnits="userSpaceOnUse"
     x1="67.486"
     y1="564.98499"
     x2="67.875999"
     y2="564.98499"
     gradientTransform="matrix(0,-122.178,-122.178,0,69096.568,8291.454)">
    <stop
       offset="0"
       stop-color="#1C63B7"
       id="stop13" />
    <stop
       offset=".5"
       stop-color="#33BDF2"
       id="stop14" />
    <stop
       offset="1"
       stop-color="#33BDF2"
       stop-opacity=".42"
       id="stop15" />
  </linearGradient>
  <path
     fill="url(#dot-net-original-c)"
     d="m 75.547,41.777 a 47.16,47.16 0 0 0 3.24,-2.84 C 74.299,25.494 72.692,1.054 59.686,1.054 c -0.93,0 -1.868,0.087 -2.804,0.26 11.847,2.947 13.365,28.722 18.665,40.463"
     id="path15"
     style="fill:url(#dot-net-original-c)" />
  <path
     fill="#3092c4"
     d="M 56.883,1.315 A 9.355,9.355 0 0 0 54.572,1.033 l 5.114,0.019 c -0.929,0 -1.867,0.086 -2.803,0.263"
     id="path16" />
  <path
     fill="#1969bc"
     d="m 75.319,44.632 a 19.441,19.441 0 0 1 -1.466,-1.584 c -2.188,1.549 -4.368,2.724 -6.533,3.489 0.771,0.376 1.578,0.656 2.436,0.829 0.664,0.136 1.353,0.206 2.075,0.206 2.431,0 4.353,-0.288 5.987,-1.072 -0.9,-0.488 -1.726,-1.118 -2.499,-1.868"
     id="path17" />
  <linearGradient
     id="dot-net-original-d"
     gradientUnits="userSpaceOnUse"
     x1="61.852001"
     y1="563.28101"
     x2="62.243"
     y2="563.28101"
     gradientTransform="matrix(0,159.425,159.425,0,-89736.463,-9867.705)">
    <stop
       offset="0"
       stop-color="#166AB8"
       id="stop17" />
    <stop
       offset=".4"
       stop-color="#36AEE8"
       id="stop18" />
    <stop
       offset=".4"
       stop-color="#36AEE8"
       id="stop19" />
    <stop
       offset=".846"
       stop-color="#0798DD"
       id="stop20" />
    <stop
       offset=".846"
       stop-color="#0798DD"
       id="stop21" />
    <stop
       offset="1"
       stop-color="#0798DD"
       id="stop22" />
  </linearGradient>
  <path
     fill="url(#dot-net-original-d)"
     d="m 53.852,2.159 c 10.611,5.55 11.534,30.684 20.001,40.889 0.568,-0.4 1.13,-0.824 1.691,-1.271 -5.3,-11.741 -6.815,-37.519 -18.66,-40.463 -1.011,0.189 -2.02,0.469 -3.032,0.845"
     id="path22"
     style="fill:url(#dot-net-original-d)" />
  <linearGradient
     id="dot-net-original-e"
     gradientUnits="userSpaceOnUse"
     x1="61.974998"
     y1="563.367"
     x2="62.366001"
     y2="563.367"
     gradientTransform="matrix(0,169.528,169.528,0,-95446.463,-10512.961)">
    <stop
       offset="0"
       stop-color="#124379"
       id="stop23" />
    <stop
       offset=".39"
       stop-color="#1487CB"
       id="stop24" />
    <stop
       offset=".39"
       stop-color="#1487CB"
       id="stop25" />
    <stop
       offset=".78"
       stop-color="#165197"
       id="stop26" />
    <stop
       offset=".78"
       stop-color="#165197"
       id="stop27" />
    <stop
       offset="1"
       stop-color="#165197"
       id="stop28" />
  </linearGradient>
  <path
     fill="url(#dot-net-original-e)"
     d="M 45.732,7.089 C 53.869,18.23 56.781,41.373 67.32,46.537 69.486,45.772 71.666,44.598 73.853,43.048 65.386,32.843 64.463,7.71 53.852,2.159 51.159,3.161 48.455,4.83 45.732,7.089"
     id="path28"
     style="fill:url(#dot-net-original-e)" />
  <linearGradient
     id="dot-net-original-f"
     gradientUnits="userSpaceOnUse"
     x1="1006.454"
     y1="-1412.08"
     x2="1008.771"
     y2="-1412.08"
     gradientTransform="matrix(4.038,0,0,-4.038,-4031.354,-5688.872)">
    <stop
       offset="0"
       stop-color="#33BDF2"
       stop-opacity=".698"
       id="stop29" />
    <stop
       offset="1"
       stop-color="#1DACD8"
       id="stop30" />
  </linearGradient>
  <path
     fill="url(#dot-net-original-f)"
     d="m 37.362,9.645 c -1.275,2.883 -2.578,6.674 -4.152,11.621 3.131,-4.413 6.253,-8.214 9.357,-11.295 a 33.873,33.873 0 0 0 -1.382,-3.606 46.113,46.113 0 0 0 -3.823,3.28"
     id="path30"
     style="fill:url(#dot-net-original-f)" />
  <path
     fill="#2b74b1"
     d="m 42.316,5.532 c -0.374,0.268 -0.751,0.542 -1.13,0.832 0.495,1.08 0.953,2.292 1.38,3.607 A 66.502,66.502 0 0 1 44.25,8.374 22.346,22.346 0 0 0 42.316,5.532"
     id="path31" />
  <path
     fill="#125a9e"
     d="m 43.652,4.64 c -0.445,0.282 -0.888,0.58 -1.337,0.891 0.695,0.855 1.333,1.81 1.936,2.844 0.495,-0.448 0.989,-0.879 1.482,-1.287 -0.654,-0.9 -1.35,-1.726 -2.081,-2.448"
     id="path32" />
  <linearGradient
     id="dot-net-original-g"
     gradientUnits="userSpaceOnUse"
     x1="67.564003"
     y1="565.47998"
     x2="67.954002"
     y2="565.47998"
     gradientTransform="matrix(0,-119.018,-119.018,0,67405.857,8086.243)">
    <stop
       offset="0"
       stop-color="#136AB4"
       id="stop32" />
    <stop
       offset=".6"
       stop-color="#59CAF5"
       stop-opacity=".549"
       id="stop33" />
    <stop
       offset="1"
       stop-color="#59CAF5"
       stop-opacity=".235"
       id="stop34" />
  </linearGradient>
  <path
     fill="url(#dot-net-original-g)"
     d="m 116.03,0.005 c -6.001,23.144 -18.536,41.734 -29.044,46.42 h -0.021 l -0.567,0.243 -0.069,0.027 -0.161,0.062 -0.072,0.03 -0.263,0.093 -0.108,0.038 -0.131,0.043 -0.126,0.044 -0.112,0.038 -0.224,0.068 -0.096,0.025 -0.151,0.041 -0.103,0.028 -0.165,0.043 -0.201,0.044 c 0.475,0.175 0.97,0.264 1.503,0.264 9.965,0 20.013,-17.858 36.638,-47.556 h -6.528 z"
     id="path34"
     style="fill:url(#dot-net-original-g)" />
  <linearGradient
     id="dot-net-original-h"
     gradientUnits="userSpaceOnUse"
     x1="998.23102"
     y1="-1414.829"
     x2="1006.826"
     y2="-1414.829"
     gradientTransform="matrix(4.038,0,0,-4.038,-4031.354,-5688.872)">
    <stop
       offset="0"
       stop-color="#05A1E6"
       stop-opacity=".247"
       id="stop35" />
    <stop
       offset="1"
       stop-color="#05A1E6"
       id="stop36" />
  </linearGradient>
  <path
     fill="url(#dot-net-original-h)"
     d="M 31.045,1.974 31.064,1.958 31.087,1.943 H 31.1 l 0.161,-0.062 0.032,-0.016 0.042,-0.017 0.173,-0.062 h 0.009 l 0.383,-0.134 0.057,-0.015 0.164,-0.049 0.075,-0.024 0.165,-0.049 0.063,-0.017 0.548,-0.142 0.075,-0.017 0.16,-0.031 0.078,-0.024 0.161,-0.03 h 0.038 l 0.333,-0.062 h 0.066 L 34.037,1.165 34.124,1.15 34.271,1.128 34.352,1.112 34.71,1.08 A 11.467,11.467 0 0 0 33.649,1.026 C 22.426,1.026 6.964,21.848 0,48.814 H 1.343 A 390.312,390.312 0 0 0 7.405,37.548 C 12.284,18.448 22.219,5.422 31.045,1.971"
     id="path36"
     style="fill:url(#dot-net-original-h)" />
  <path
     fill="#0d82ca"
     d="M 37.362,9.645 A 46.488,46.488 0 0 1 41.185,6.364 17.961,17.961 0 0 0 40.274,4.603 c -1.026,1.246 -1.964,2.89 -2.912,5.042"
     id="path37" />
  <path
     fill="#0d82ca"
     d="m 38.284,2.131 c 0.733,0.614 1.39,1.46 1.99,2.473 0.189,-0.232 0.381,-0.447 0.58,-0.649 A 11.263,11.263 0 0 0 38.142,2.058 l 0.12,0.057 0.022,0.016"
     id="path38" />
  <linearGradient
     id="dot-net-original-i"
     gradientUnits="userSpaceOnUse"
     x1="67.490997"
     y1="564.35901"
     x2="67.880997"
     y2="564.35901"
     gradientTransform="matrix(0,-121.865,-121.865,0,68795.021,8270.899)">
    <stop
       offset="0"
       stop-color="#318ED5"
       id="stop38" />
    <stop
       offset="1"
       stop-color="#38A7E4"
       id="stop39" />
  </linearGradient>
  <path
     fill="url(#dot-net-original-i)"
     d="M 7.406,37.549 C 17.639,17.83 22.487,5.35 31.046,1.972 22.221,5.426 12.284,18.451 7.406,37.549"
     id="path39"
     style="fill:url(#dot-net-original-i)" />
  <path
     fill="#127bca"
     d="m 40.853,3.955 c -0.199,0.204 -0.389,0.417 -0.58,0.649 0.322,0.538 0.621,1.124 0.913,1.76 0.378,-0.29 0.756,-0.563 1.129,-0.832 A 15.351,15.351 0 0 0 40.853,3.955"
     id="path40" />
  <linearGradient
     id="dot-net-original-j"
     gradientUnits="userSpaceOnUse"
     x1="67.593002"
     y1="564.40997"
     x2="67.984001"
     y2="564.40997"
     gradientTransform="matrix(0,-118.46,-118.46,0,66881.982,8053.428)">
    <stop
       offset="0"
       stop-color="#05A1E6"
       id="stop40" />
    <stop
       offset="1"
       stop-color="#05A1E6"
       stop-opacity=".549"
       id="stop41" />
  </linearGradient>
  <path
     fill="url(#dot-net-original-j)"
     d="m 12.052,48.726 -0.186,0.022 h -0.035 l -0.158,0.016 h -0.026 l -0.376,0.025 h -0.039 c 10.356,-0.29 15.091,-5.475 17.44,-12.997 1.785,-5.701 3.252,-10.505 4.537,-14.535 -4.338,6.106 -8.696,13.384 -13.077,21.539 -2.112,3.93 -5.325,5.572 -8.08,5.922"
     id="path41"
     style="fill:url(#dot-net-original-j)" />
  <linearGradient
     id="dot-net-original-k"
     gradientUnits="userSpaceOnUse"
     x1="68.291"
     y1="564.52502"
     x2="68.681999"
     y2="564.52502"
     gradientTransform="matrix(0,-100.1,-100.1,0,56533.83,6884.712)">
    <stop
       offset="0"
       stop-color="#1959A6"
       id="stop42" />
    <stop
       offset=".5"
       stop-color="#05A1E6"
       id="stop43" />
    <stop
       offset=".5"
       stop-color="#05A1E6"
       id="stop44" />
    <stop
       offset=".918"
       stop-color="#7EC5EA"
       id="stop45" />
    <stop
       offset="1"
       stop-color="#7EC5EA"
       id="stop46" />
  </linearGradient>
  <path
     fill="url(#dot-net-original-k)"
     d="m 12.052,48.722 c 2.755,-0.351 5.968,-1.991 8.08,-5.923 4.381,-8.151 8.741,-15.431 13.075,-21.538 1.577,-4.949 2.878,-8.737 4.154,-11.621 -8.639,8.223 -17.311,21.896 -25.31,39.077"
     id="path46"
     style="fill:url(#dot-net-original-k)" />
  <path
     fill="#05a1e6"
     d="M 7.406,37.55 A 388.004,388.004 0 0 1 1.343,48.816 H 5.247 A 95.502,95.502 0 0 1 7.405,37.552"
     id="path47" />
  <linearGradient
     id="dot-net-original-l"
     gradientUnits="userSpaceOnUse"
     x1="67.891998"
     y1="563.82001"
     x2="68.281998"
     y2="563.82001"
     gradientTransform="matrix(-19.137939,-108.53665,-108.53665,19.137939,62520.497,-3375.391)">
    <stop
       offset="0"
       stop-color="#165096"
       id="stop47" />
    <stop
       offset="1"
       stop-color="#0D82CA"
       id="stop48" />
  </linearGradient>
  <path
     fill="url(#dot-net-original-l)"
     d="m 34.352,1.12 -0.083,0.016 -0.146,0.021 -0.086,0.015 -0.154,0.027 -0.066,0.016 -0.333,0.058 h -0.038 l -0.162,0.032 -0.081,0.022 -0.157,0.031 -0.074,0.018 -0.549,0.142 -0.063,0.018 -0.166,0.049 -0.075,0.021 -0.163,0.049 -0.06,0.016 -0.381,0.134 -0.173,0.06 -0.072,0.03 -0.161,0.06 -0.054,0.026 C 22.497,5.358 17.649,17.838 7.416,37.557 A 94.655,94.655 0 0 0 5.258,48.821 H 5.805 L 9.56,48.805 h 1.723 l 0.375,-0.025 h 0.024 l 0.158,-0.016 h 0.037 l 0.186,-0.022 c 8,-17.182 16.672,-30.854 25.31,-39.077 0.95,-2.152 1.887,-3.796 2.911,-5.04 -0.6,-1.013 -1.256,-1.861 -1.988,-2.476 L 38.275,2.133 38.153,2.074 38.032,2.013 37.915,1.956 37.776,1.898 37.668,1.851 37.441,1.756 37.344,1.72 37.175,1.652 37.084,1.622 36.849,1.541 H 36.83 L 36.558,1.464 36.497,1.445 36.268,1.381 36.215,1.366 A 7.851,7.851 0 0 0 35.646,1.241 L 35.587,1.225 35.34,1.185 35.291,1.17 34.999,1.131 H 34.948 L 34.722,1.106 34.364,1.139"
     id="path48"
     style="fill:url(#dot-net-original-l)" />
  <linearGradient
     id="dot-net-original-m"
     gradientUnits="userSpaceOnUse"
     x1="70.847"
     y1="566.88202"
     x2="71.237"
     y2="566.88202"
     gradientTransform="matrix(0,-56.721,-56.721,0,32249.406,4040.693)">
    <stop
       offset="0"
       stop-color="#05A1E6"
       id="stop49" />
    <stop
       offset=".874"
       stop-color="#0495D6"
       id="stop50" />
    <stop
       offset="1"
       stop-color="#0495D6"
       id="stop51" />
  </linearGradient>
  <path
     fill="url(#dot-net-original-m)"
     d="M 92.59,12.818 C 90.62,19.125 89.027,24.328 87.638,28.609 93.041,21.174 98.363,11.822 103.43,1.03 97.517,2.887 94.365,7.137 92.59,12.818"
     id="path51"
     style="fill:url(#dot-net-original-m)" />
  <linearGradient
     id="dot-net-original-n"
     gradientUnits="userSpaceOnUse"
     x1="61.633999"
     y1="562.21301"
     x2="62.023998"
     y2="562.21301"
     gradientTransform="matrix(-23.062735,130.79527,130.79527,23.062735,-72007.279,-21029.504)">
    <stop
       offset="0"
       stop-color="#38A7E4"
       stop-opacity=".329"
       id="stop52" />
    <stop
       offset=".962"
       stop-color="#0E88D3"
       id="stop53" />
    <stop
       offset=".962"
       stop-color="#0E88D3"
       id="stop54" />
    <stop
       offset="1"
       stop-color="#0E88D3"
       id="stop55" />
  </linearGradient>
  <path
     fill="url(#dot-net-original-n)"
     d="m 87.809,46.032 c -0.275,0.14 -0.552,0.273 -0.823,0.394 C 97.494,41.739 110.03,23.149 116.03,0.005 h -1.216 C 101.026,24.636 96.592,41.125 87.809,46.032"
     id="path55"
     style="fill:url(#dot-net-original-n)" />
  <path
     fill="#079ae1"
     d="m 80.947,43.963 c 2.287,-2.791 4.148,-7.535 6.691,-15.354 -2.933,4.029 -5.885,7.492 -8.84,10.316 l -0.015,0.025 c 0.645,1.931 1.352,3.636 2.158,5.012"
     id="path56" />
  <path
     fill="#1969bc"
     d="m 80.947,43.963 c -0.778,0.95 -1.603,1.673 -2.519,2.209 -0.2,0.117 -0.404,0.227 -0.61,0.327 a 8.839,8.839 0 0 0 3.206,1.011 l 0.524,0.046 h 0.031 l 0.252,0.016 h 0.855 l 0.097,-0.016 0.189,-0.016 h 0.092 l 0.205,-0.022 h 0.017 l 0.063,-0.015 0.219,-0.034 h 0.064 l 0.246,-0.041 h 0.04 l 0.491,-0.104 C 83.052,46.828 81.917,45.657 80.94,43.99"
     id="path57" />
  <path
     fill="#1e5cb3"
     d="m 61.574,47.572 c 0.982,0 1.976,-0.096 2.973,-0.288 a 18.309,18.309 0 0 0 2.773,-0.747 c 0.771,0.376 1.579,0.656 2.435,0.831 0.664,0.135 1.354,0.205 2.077,0.205 H 61.574 Z m 10.258,0 c 2.429,0 4.353,-0.288 5.986,-1.073 a 8.84,8.84 0 0 0 3.206,1.012 l 0.524,0.045 h 0.031 l 0.252,0.016 h 0.302 z"
     id="path58" />
  <path
     fill="#1d60b5"
     d="m 82.133,47.572 h 0.561 l 0.097,-0.016 0.191,-0.016 h 0.092 l 0.204,-0.022 h 0.017 l 0.062,-0.016 0.219,-0.033 0.067,-0.015 0.247,-0.04 h 0.039 L 84.42,47.31 c 0.475,0.175 0.97,0.264 1.503,0.264 l -3.788,0.016 z"
     id="path59" />
  <path
     fill="#175fab"
     d="m 78.79,38.951 v -0.016 a 47.16,47.16 0 0 1 -3.24,2.84 36.81,36.81 0 0 1 -1.693,1.271 c 0.476,0.568 0.959,1.1 1.468,1.585 0.772,0.749 1.597,1.38 2.498,1.867 0.205,-0.101 0.41,-0.211 0.609,-0.327 0.918,-0.536 1.741,-1.26 2.52,-2.209 -0.806,-1.376 -1.513,-3.082 -2.157,-5.012"
     id="path60" />
  <linearGradient
     id="dot-net-original-o"
     gradientUnits="userSpaceOnUse"
     x1="61.148998"
     y1="562.65399"
     x2="61.539001"
     y2="562.65399"
     gradientTransform="matrix(0,123.742,123.742,0,-69526.346,-7566.778)">
    <stop
       offset="0"
       stop-color="#168CD4"
       id="stop60" />
    <stop
       offset=".5"
       stop-color="#1C87CC"
       id="stop61" />
    <stop
       offset="1"
       stop-color="#154B8D"
       id="stop62" />
  </linearGradient>
  <path
     fill="url(#dot-net-original-o)"
     d="m 110.964,0.005 h -6.121 l -0.97,0.047 -0.451,0.966 c -5.068,10.793 -10.388,20.145 -15.791,27.58 -2.54,7.818 -4.404,12.563 -6.69,15.353 0.977,1.668 2.114,2.84 3.466,3.337 l 0.106,-0.023 h 0.022 l 0.075,-0.016 0.17,-0.042 0.101,-0.029 0.151,-0.039 0.094,-0.027 0.226,-0.068 0.112,-0.038 0.126,-0.046 0.13,-0.041 0.106,-0.04 0.264,-0.093 0.073,-0.027 0.162,-0.063 0.068,-0.025 0.568,-0.243 h 0.02 c 0.271,-0.119 0.547,-0.254 0.821,-0.394 8.785,-4.908 13.22,-21.396 27.008,-46.026 h -3.851 z"
     id="path62"
     style="fill:url(#dot-net-original-o)" />
  <path
     fill="#7dcbec"
     d="m 34.712,1.088 0.063,0.016 0.16,0.017 h 0.054 l 0.292,0.038 0.049,0.016 0.246,0.041 0.062,0.015 0.567,0.126 0.052,0.016 0.228,0.064 0.063,0.019 0.271,0.077 0.021,0.016 0.237,0.081 0.09,0.029 0.17,0.069 0.096,0.034 0.226,0.094 0.11,0.047 0.136,0.059 0.12,0.057 0.119,0.062 c 0.979,0.48 1.879,1.121 2.713,1.898 0.308,-0.323 0.628,-0.613 0.962,-0.874 -1.823,-1.293 -3.89,-2.03 -6.271,-2.03 -0.276,0 -0.552,0.016 -0.832,0.037"
     id="path63" />
  <path
     fill="#5ec5ed"
     d="m 40.853,3.955 c 0.511,0.475 1,1.005 1.462,1.577 0.448,-0.311 0.892,-0.611 1.337,-0.891 a 14.13,14.13 0 0 0 -1.839,-1.56 c -0.333,0.26 -0.652,0.552 -0.96,0.874"
     id="path64" />
  <g
     transform="matrix(5.048,0,0,-5.048,-9066.981,2231.021)"
     id="g66">
    <linearGradient
       id="dot-net-original-p"
       gradientUnits="userSpaceOnUse"
       x1="1806.96"
       y1="336.15799"
       x2="1807.35"
       y2="336.15799"
       gradientTransform="matrix(28.502583,-11.821896,-11.821896,-28.502583,-45726.448,31385.973)">
      <stop
         offset="0"
         stop-color="#97D6EE"
         id="stop64" />
      <stop
         offset=".703"
         stop-color="#55C1EA"
         id="stop65" />
      <stop
         offset="1"
         stop-color="#55C1EA"
         id="stop66" />
    </linearGradient>
    <path
       fill="url(#dot-net-original-p)"
       d="m 1802.977,441.733 0.165,0.007 c 0.472,0 0.881,-0.146 1.242,-0.402 0.381,0.301 0.842,0.406 1.482,0.406 h -3.099 l 0.21,-0.011"
       id="path66"
       style="fill:url(#dot-net-original-p)" />
  </g>
  <g
     transform="matrix(5.048,0,0,-5.048,-9066.981,2231.021)"
     id="g68">
    <linearGradient
       id="dot-net-original-q"
       gradientUnits="userSpaceOnUse"
       x1="1808.848"
       y1="335.17099"
       x2="1809.238"
       y2="335.17099"
       gradientTransform="matrix(22.51204,10.204809,10.204809,-22.51204,-42335.638,-10473.265)">
      <stop
         offset="0"
         stop-color="#7ACCEC"
         id="stop67" />
      <stop
         offset="1"
         stop-color="#3FB7ED"
         id="stop68" />
    </linearGradient>
    <path
       fill="url(#dot-net-original-q)"
       d="m 1805.866,441.744 c -0.64,0 -1.1,-0.105 -1.482,-0.406 0.126,-0.089 0.248,-0.193 0.364,-0.309 0.531,0.337 1.056,0.561 1.574,0.658 0.198,0.037 0.395,0.056 0.589,0.056 h -1.045 z"
       id="path68"
       style="fill:url(#dot-net-original-q)" />
  </g>
  <linearGradient
     id="dot-net-original-r"
     gradientUnits="userSpaceOnUse"
     x1="61.049"
     y1="562.70599"
     x2="61.438999"
     y2="562.70599"
     gradientTransform="matrix(0,121.032,121.032,0,-68014.432,-7386.337)">
    <stop
       offset="0"
       stop-color="#1DA7E7"
       id="stop69" />
    <stop
       offset="1"
       stop-color="#37ABE7"
       stop-opacity="0"
       id="stop70" />
  </linearGradient>
  <path
     fill="url(#dot-net-original-r)"
     d="m 87.638,28.613 c 1.391,-4.284 2.98,-9.485 4.954,-15.794 1.777,-5.684 4.925,-9.934 10.835,-11.788 l 0.456,-0.966 c -9.636,0.577 -14.14,5.479 -16.405,12.738 -3.964,12.673 -6.365,20.888 -8.677,26.123 2.952,-2.823 5.904,-6.288 8.837,-10.313"
     id="path70"
     style="fill:url(#dot-net-original-r)" />
</svg>
