<?xml version="1.0" encoding="UTF-8" standalone="no"?>
<svg
   viewBox="0 0 362.73261 411.38"
   version="1.1"
   id="svg8"
   sodipodi:docname="logo-html5.svg"
   width="362.7326"
   height="411.38"
   inkscape:version="1.4.2 (f4327f4, 2025-05-13)"
   xmlns:inkscape="http://www.inkscape.org/namespaces/inkscape"
   xmlns:sodipodi="http://sodipodi.sourceforge.net/DTD/sodipodi-0.dtd"
   xmlns="http://www.w3.org/2000/svg"
   xmlns:svg="http://www.w3.org/2000/svg"
   xmlns:rdf="http://www.w3.org/1999/02/22-rdf-syntax-ns#"
   xmlns:cc="http://creativecommons.org/ns#"
   xmlns:dc="http://purl.org/dc/elements/1.1/">
  <defs
     id="defs8" />
  <sodipodi:namedview
     id="namedview8"
     pagecolor="#ffffff"
     bordercolor="#000000"
     borderopacity="0.25"
     inkscape:showpageshadow="2"
     inkscape:pageopacity="0.0"
     inkscape:pagecheckerboard="true"
     inkscape:deskcolor="#d1d1d1"
     inkscape:zoom="2.3300781"
     inkscape:cx="181.53898"
     inkscape:cy="186.90361"
     inkscape:window-width="2400"
     inkscape:window-height="1411"
     inkscape:window-x="-9"
     inkscape:window-y="-9"
     inkscape:window-maximized="1"
     inkscape:current-layer="svg8"
     inkscape:document-units="mm" />
  <title
     id="title1">HTML5 Logo</title>
  <polygon
     fill="#e44d26"
     points="74.633,100.62 437.367,100.62 404.321,470.819 255.778,512 107.644,470.877 "
     id="polygon1"
     transform="matrix(0.99999614,0,0,1,-74.632712,-100.62)" />
  <polygon
     fill="#f16529"
     points="404.27,130.894 256,130.894 256,480.523 376.03,447.246 "
     id="polygon2"
     transform="matrix(0.99999614,0,0,1,-74.632712,-100.62)" />
  <polygon
     fill="#ebebeb"
     points="142.132,176.305 143.219,188.488 154.38,313.627 256,313.627 256,268.217 195.91,268.217 191.76,221.716 256,221.716 256,176.305 255.843,176.305 "
     id="polygon3"
     transform="matrix(0.99999614,0,0,1,-74.632712,-100.62)" />
  <polygon
     fill="#ebebeb"
     points="205.227,372.55 201.994,336.333 177.419,336.333 156.409,336.333 162.771,407.634 255.791,433.457 256,433.399 256,386.153 255.801,386.206 "
     id="polygon4"
     transform="matrix(0.99999614,0,0,1,-74.632712,-100.62)" />
  <polygon
     fill="#ffffff"
     points="349.62,399.962 360.291,280.411 361.399,268.217 349.162,268.217 255.843,268.217 255.843,313.627 311.761,313.627 306.49,372.521 255.843,386.191 255.843,433.435 348.937,407.634 "
     id="polygon7"
     transform="matrix(0.99999614,0,0,1,-74.632712,-100.62)" />
  <polygon
     fill="#ffffff"
     points="255.843,204.509 255.843,221.605 255.843,221.716 365.385,221.716 365.531,221.716 366.442,211.509 368.511,188.488 369.597,176.305 255.843,176.305 "
     id="polygon8"
     transform="matrix(0.99999614,0,0,1,-74.632712,-100.62)" />
  <metadata
     id="metadata8">
    <rdf:RDF>
      <cc:Work
         rdf:about="">
        <dc:title>HTML5 Logo</dc:title>
      </cc:Work>
    </rdf:RDF>
  </metadata>
</svg>
